<?xml version="1.0" encoding="utf-8"?>
<!-- Generator: Adobe Illustrator 26.0.3, SVG Export Plug-In . SVG Version: 6.00 Build 0)  -->
<svg version="1.0" id="katman_1" xmlns="http://www.w3.org/2000/svg" xmlns:xlink="http://www.w3.org/1999/xlink" x="0px" y="0px"
	 viewBox="0 0 600 450" style="enable-background:new 0 0 600 450;" xml:space="preserve">
<style type="text/css">
	.st0{fill:#ED6C5D;}
	.st1{fill:#394D5B;}
</style>
<g id="nav-menu-_x28_V1_x29_">
	<g id="nav-menu-_x28_v1_x29_" transform="translate(-120.000000, -116.000000)">
		<g id="n8" transform="translate(120.000000, 116.000000)">
			<path id="Shape" class="st0" d="M255.2,176.9c-9.1,0-16.7,6.2-18.8,14.6h-27.1c-10.6,0-19.3,8.6-19.3,19.3c0,5.3-4.3,9.6-9.6,9.6
				h-3.9c-2.1-8.4-9.8-14.6-18.8-14.6c-9.1,0-16.7,6.2-18.8,14.6h-15.5c-2.1-8.4-9.8-14.6-18.8-14.6c-10.7,0-19.4,8.7-19.4,19.4
				c0,10.7,8.7,19.4,19.4,19.4c9.1,0,16.7-6.2,18.8-14.6h15.5c2.1,8.4,9.8,14.6,18.8,14.6c9,0,16.6-6.1,18.8-14.5h3.9
				c5.3,0,9.6,4.3,9.6,9.6c0,10.6,8.6,19.3,19.3,19.3h6.3c2.1,8.4,9.8,14.6,18.8,14.6c10.7,0,19.4-8.7,19.4-19.4
				c0-10.7-8.7-19.4-19.4-19.4c-9.1,0-16.7,6.2-18.8,14.6h-6.3c-5.3,0-9.6-4.3-9.6-9.6c0-5.8-2.6-11-6.7-14.5
				c4.1-3.5,6.7-8.7,6.7-14.5c0-5.3,4.3-9.6,9.6-9.6h27.1c2.1,8.4,9.8,14.6,18.8,14.6c10.7,0,19.4-8.7,19.4-19.4
				C274.7,185.7,265.9,176.9,255.2,176.9z M104.6,235.1c-5.4,0-9.8-4.4-9.8-9.8c0-5.4,4.4-9.8,9.8-9.8c5.4,0,9.8,4.4,9.8,9.8
				C114.5,230.7,110.1,235.1,104.6,235.1z M157.7,235.1c-5.4,0-9.8-4.4-9.8-9.8c0-5.4,4.4-9.8,9.8-9.8c5.4,0,9.8,4.4,9.8,9.8
				C167.6,230.7,163.2,235.1,157.7,235.1z M234.4,244.5c5.4,0,9.8,4.4,9.8,9.8s-4.4,9.8-9.8,9.8c-5.4,0-9.8-4.4-9.8-9.8
				C224.6,248.9,229,244.5,234.4,244.5z M255.2,206.2c-5.4,0-9.8-4.4-9.8-9.8c0-5.4,4.4-9.8,9.8-9.8s9.8,4.4,9.8,9.8
				C265,201.8,260.6,206.2,255.2,206.2z"/>
			<g id="Group" transform="translate(56.528302, 5.547170)">
				<path id="Path" class="st1" d="M231.5,215.1c0-1.2-0.6-1.7-1.7-1.7h-3.2v-6.5h7.3c3.4,0,5,1.5,5,4.4v1.5c0,1.3-0.2,2.3-0.2,2.3
					h0.2c1.6-3.4,6.2-9,14.8-9c9.4,0,13.6,5.1,13.6,15.1v17.1c0,1.2,0.6,1.7,1.7,1.7h3.2v6.5h-7.5c-3.5,0-5-1.5-5-5v-18.5
					c0-5.5-1.1-9.9-7.4-9.9c-6.1,0-10.9,4-12.5,9.7c-0.5,1.6-0.7,3.4-0.7,5.3v18.5h-7.6L231.5,215.1L231.5,215.1z"/>
				<path id="Shape_00000000193529482619031430000017104494194065144706_" class="st1" d="M288,216.5v-0.2c0,0-6.8-3.6-6.8-11.2
					s6.1-14.7,17.1-14.7c10.5,0,17.2,6.3,17.2,14.9c0,8.1-6.6,13.1-6.6,13.1v0.2c5,2.9,8.2,6.7,8.2,12.6c0,8.6-7.8,16.1-19,16.1
					c-10.4,0-19.2-6.5-19.2-16.7C278.9,221.5,288,216.5,288,216.5z M298.1,240.2c5.8,0,11.1-3.8,11.1-9.3c0-4.8-4.1-6.9-9.3-9
					c-2.1-0.9-5.1-2-5.7-2c-1.9,0-7.5,4.5-7.5,10.4C286.8,236.3,292.1,240.2,298.1,240.2z M302.2,215.2c1.9,0,5.8-4.6,5.8-9.5
					c0-5.1-4.1-8.3-9.7-8.3c-6,0-9.5,3.4-9.5,7.8c0,4.8,4.1,6.7,9,8.7C299,214.4,301.2,215.2,302.2,215.2z"/>
				<path id="Path_00000058555965575859210700000015047567490314538425_" class="st1" d="M329.1,215.1c0-1.2-0.6-1.7-1.7-1.7h-3.2
					v-6.5h7.3c3.4,0,5,1.5,5,4.4v1.5c0,1.3-0.2,2.3-0.2,2.3h0.2c1.6-3.4,6.2-9,14.8-9c9.4,0,13.6,5.1,13.6,15.1v17.1
					c0,1.2,0.6,1.7,1.7,1.7h3.2v6.5h-7.5c-3.5,0-5-1.5-5-5v-18.5c0-5.5-1.1-9.9-7.4-9.9c-6.1,0-10.9,4-12.5,9.7
					c-0.5,1.6-0.7,3.4-0.7,5.3v18.5h-7.6L329.1,215.1L329.1,215.1z"/>
				<polygon id="Path_00000115497908923389406520000000091938452908988329_" class="st1" points="378.7,238.3 386.4,238.3 
					386.4,246.3 378.7,246.3 				"/>
				<path id="Path_00000055681374598632779010000014193024355555402647_" class="st1" d="M396.9,215.1c0-1.2-0.6-1.7-1.7-1.7H392
					v-6.5h7.4c3.5,0,5,1.5,5,5v26.3c0,1.2,0.6,1.7,1.7,1.7h3.2v6.5h-7.4c-3.5,0-5-1.5-5-5V215.1z"/>
				<path id="Shape_00000171688524155496246370000001569610129934685339_" class="st1" d="M437.3,205.9c11.8,0,21.3,8.7,21.3,20.6
					c0,12-9.5,20.7-21.3,20.7c-11.8,0-21.2-8.7-21.2-20.7C416.1,214.6,425.5,205.9,437.3,205.9z M437.3,240.7
					c7.5,0,13.6-5.9,13.6-14.2c0-8.2-6.1-14-13.6-14c-7.4,0-13.5,5.8-13.5,14C423.8,234.8,429.9,240.7,437.3,240.7z"/>
			</g>
			<path id="Shape_00000015339104408626004630000007000703904557706642_" class="st0" d="M456.9,210.1c-3.9,0-7-3.2-7-7s3.2-7,7-7
				s7,3.2,7,7S460.7,210.1,456.9,210.1z M456.9,199.4c-2,0-3.7,1.6-3.7,3.7s1.6,3.7,3.7,3.7s3.7-1.6,3.7-3.7
				S458.9,199.4,456.9,199.4z"/>
		</g>
	</g>
</g>
</svg>
